<svg width="28" height="28" viewBox="0 0 28 28" fill="none" xmlns="http://www.w3.org/2000/svg">
<path d="M13.5684 4.61816C13.826 4.431 14.175 4.431 14.4326 4.61816L23.7881 11.415C24.0457 11.6022 24.1541 11.9345 24.0557 12.2373L20.4824 23.2354C20.384 23.5381 20.1015 23.7431 19.7832 23.7432H8.21875C7.90036 23.7432 7.61796 23.5381 7.51953 23.2354L3.94629 12.2373C3.8479 11.9345 3.95531 11.6022 4.21289 11.415L13.5684 4.61816Z" stroke="white" stroke-width="0.735"/>
<path d="M13.5684 4.61816C13.826 4.431 14.175 4.431 14.4326 4.61816L23.7881 11.415C24.0457 11.6022 24.1541 11.9345 24.0557 12.2373L20.4824 23.2354C20.384 23.5381 20.1015 23.7431 19.7832 23.7432H8.21875C7.90036 23.7432 7.61796 23.5381 7.51953 23.2354L3.94629 12.2373C3.8479 11.9345 3.95531 11.6022 4.21289 11.415L13.5684 4.61816Z" stroke="url(#paint0_linear_42271_11990)" stroke-width="0.735"/>
<path d="M13.3516 2.42871C13.738 2.14797 14.262 2.14797 14.6484 2.42871L25.8027 10.5332C26.1891 10.8139 26.3507 11.3123 26.2031 11.7666L21.9424 24.8789C21.7948 25.3332 21.3712 25.6406 20.8936 25.6406H7.10645C6.62881 25.6406 6.20521 25.3332 6.05762 24.8789L1.79688 11.7666C1.64928 11.3123 1.81085 10.8139 2.19727 10.5332L13.3516 2.42871Z" stroke="white" stroke-width="1.47"/>
<path d="M13.3516 2.42871C13.738 2.14797 14.262 2.14797 14.6484 2.42871L25.8027 10.5332C26.1891 10.8139 26.3507 11.3123 26.2031 11.7666L21.9424 24.8789C21.7948 25.3332 21.3712 25.6406 20.8936 25.6406H7.10645C6.62881 25.6406 6.20521 25.3332 6.05762 24.8789L1.79688 11.7666C1.64928 11.3123 1.81085 10.8139 2.19727 10.5332L13.3516 2.42871Z" stroke="url(#paint1_linear_42271_11990)" stroke-width="1.47"/>
<defs>
<linearGradient id="paint0_linear_42271_11990" x1="2.80078" y1="3.90782" x2="29.8824" y2="13.7926" gradientUnits="userSpaceOnUse">
<stop stop-color="#FF9D3F"/>
<stop offset="0.337025" stop-color="#F46772"/>
<stop offset="0.659711" stop-color="#AF33E4"/>
<stop offset="1" stop-color="#2F70E4"/>
</linearGradient>
<linearGradient id="paint1_linear_42271_11990" x1="-3.53628e-08" y1="1.12257" x2="33.852" y2="13.4786" gradientUnits="userSpaceOnUse">
<stop stop-color="#FF9D3F"/>
<stop offset="0.337025" stop-color="#F46772"/>
<stop offset="0.659711" stop-color="#AF33E4"/>
<stop offset="1" stop-color="#2F70E4"/>
</linearGradient>
</defs>
</svg>
