<svg width="28" height="28" viewBox="0 0 28 28" fill="none" xmlns="http://www.w3.org/2000/svg">
<path d="M4.403 16.3994C4.17597 16.4001 3.95339 16.3365 3.76111 16.2158C3.56883 16.0951 3.41474 15.9223 3.31674 15.7175C3.21875 15.5128 3.18087 15.2844 3.20751 15.0589C3.23415 14.8335 3.32421 14.6202 3.46724 14.4439L15.3441 2.20707C15.4332 2.10424 15.5546 2.03474 15.6884 2.01C15.8222 1.98526 15.9605 2.00674 16.0804 2.07091C16.2004 2.13508 16.295 2.23814 16.3487 2.36316C16.4024 2.48818 16.412 2.62774 16.3759 2.75893L14.0725 9.98105C14.0046 10.1628 13.9817 10.3584 14.006 10.5509C14.0303 10.7434 14.1009 10.9272 14.2118 11.0865C14.3226 11.2457 14.4705 11.3757 14.6427 11.4653C14.8148 11.5548 15.0061 11.6013 15.2002 11.6006H23.598C23.825 11.5999 24.0476 11.6635 24.2399 11.7842C24.4322 11.9049 24.5863 12.0777 24.6843 12.2825C24.7823 12.4872 24.8201 12.7156 24.7935 12.9411C24.7668 13.1665 24.6768 13.3798 24.5338 13.5561L12.6568 25.7929C12.5678 25.8958 12.4464 25.9653 12.3126 25.99C12.1788 26.0147 12.0405 25.9933 11.9206 25.9291C11.8006 25.8649 11.706 25.7619 11.6523 25.6368C11.5986 25.5118 11.589 25.3723 11.6251 25.2411L13.9285 18.019C13.9964 17.8372 14.0192 17.6416 13.995 17.4491C13.9707 17.2566 13.9001 17.0728 13.7892 16.9135C13.6784 16.7543 13.5305 16.6243 13.3583 16.5347C13.1862 16.4452 12.9949 16.3987 12.8008 16.3994H4.403Z" stroke="#EEB405" stroke-width="2" stroke-linecap="round" stroke-linejoin="round"/>
</svg>
