<svg width="229" height="66" viewBox="0 0 229 66" fill="none" xmlns="http://www.w3.org/2000/svg">
<path d="M158.687 10.7119C155.297 10.7119 151.778 11.4066 148.226 12.7788L147.222 13.1663L148.528 17.3947L149.625 16.9584C152.716 15.7298 155.826 15.104 158.871 15.104C161.715 15.104 163.893 15.7039 165.343 16.8838C166.709 17.9918 167.4 19.9869 167.4 22.8088V23.3771H160.774C151.068 23.3771 146.145 26.9712 146.145 34.0588C146.145 37.5897 147.458 40.2938 150.05 42.1023C152.499 43.8103 155.9 44.6772 160.16 44.6772C163.648 44.6772 167.269 44.0974 170.922 42.9549L171.717 42.7051V22.8088C171.717 17.2914 169.457 10.7119 158.684 10.7119M167.398 27.7061V39.4211C165.343 39.9952 162.935 40.288 160.22 40.288C150.525 40.288 150.525 35.6003 150.525 34.0616C150.525 32.523 150.525 27.7061 160.958 27.7061H167.398Z" fill="#202020"/>
<path d="M93.1267 10.7129C89.7367 10.7129 86.2179 11.4076 82.6661 12.7769L81.6622 13.1644L82.9678 17.3929L84.0648 16.9565C87.1586 15.7279 90.2688 15.105 93.3132 15.105C96.1574 15.105 98.3351 15.7049 99.786 16.8848C101.152 17.9928 101.843 19.9879 101.843 22.8097V23.3781H95.2194C85.513 23.3781 80.5898 26.9722 80.5898 34.0626C80.5898 37.5906 81.9036 40.2976 84.4954 42.1061C86.9419 43.8142 90.3456 44.6811 94.605 44.6811C98.0937 44.6811 101.714 44.1012 105.367 42.9587L106.163 42.709V22.8097C106.163 17.2924 103.903 10.7129 93.1294 10.7129M101.843 39.4221C99.7887 39.9962 97.3806 40.289 94.6654 40.289C84.9699 40.289 84.9699 35.6013 84.9699 34.0626C84.9699 32.524 84.9699 27.707 95.4031 27.707H101.843V39.4221Z" fill="#202020"/>
<path d="M190.203 11.6771C188.697 11.1202 186.797 10.8389 184.55 10.8389C182.995 10.8389 181.371 11.0427 179.718 11.4474C178.053 11.8551 176.868 12.2397 176.089 12.6215L175.447 12.9373V44.1009H179.767V16.0491C181.374 15.5065 183.042 15.2309 184.731 15.2309C186.506 15.2309 187.883 15.4204 188.818 15.7965L189.907 16.2328L191.234 12.0589L190.2 11.6771H190.203Z" fill="#202020"/>
<path d="M223.351 10.6104L210.937 37.9331L198.381 10.6104H193.639L208.537 43.2093L207.218 46.1144C205.474 50.1361 203.951 52.8833 202.69 54.2813C201.549 55.5501 200.106 56.1645 198.28 56.1645C197.465 56.1645 196.744 55.9951 196.074 55.6449L194.925 55.0449L193.57 59.3049L194.56 59.7068C195.97 60.2781 197.188 60.5565 198.28 60.5565C201.382 60.5565 203.812 59.5748 205.501 57.64C207.064 55.8487 209.014 52.3838 211.469 47.0445L228.095 10.6104H223.351Z" fill="#202020"/>
<path d="M137.912 41.509C140.91 38.1418 142.429 33.8301 142.429 28.6888C142.429 23.5475 140.91 19.2301 137.915 15.8456C134.892 12.441 130.924 10.7129 126.116 10.7129C121.308 10.7129 117.345 12.4324 114.344 15.8197C111.363 19.1841 109.852 23.513 109.852 28.6888C109.852 33.8645 111.363 38.1418 114.341 41.5062C115.866 43.2285 117.641 44.5203 119.646 45.3729C119.393 45.4217 119.152 45.4791 118.924 45.5394L117.94 45.8035L118.551 49.7678L119.736 49.4492C120.693 49.1908 121.985 49.0617 123.576 49.0617C128.505 49.0617 132.756 50.319 136.212 52.7935L137.399 53.6432L138.798 49.6186L138.082 49.1076C136.033 47.6436 133.719 46.57 131.16 45.8925C133.765 45.0916 136.025 43.6247 137.915 41.5062M126.121 42.4678C122.386 42.4678 119.495 41.2191 117.292 38.6528C115.087 36.0864 113.971 32.7335 113.971 28.6888C113.971 24.6441 115.09 21.2797 117.295 18.6932C119.5 16.1097 122.388 14.8523 126.121 14.8523C129.854 14.8523 132.791 16.1097 134.997 18.6932C137.204 21.2797 138.323 24.6441 138.323 28.6888C138.323 32.7335 137.204 36.0864 134.999 38.6556C132.794 41.222 129.89 42.4707 126.121 42.4707" fill="#202020"/>
<path d="M85.6785 55.9153H86.7225V62.0996H85.6785V55.9153ZM95.194 55.9153H96.238V62.0996H95.1056L91.602 57.5875V62.0996H90.558V55.9153H91.602L95.194 60.5336V55.9153ZM102.413 56.8708V62.0996H101.369V56.8708H99.4933V55.9153H104.289V56.8708H102.413ZM111.884 55.9153V56.8974H108.584V58.5341H111.548V59.4631H108.584V61.1176H111.99V62.0996H107.54V55.9153H111.884ZM120.389 57.9237C120.389 58.9441 119.944 59.587 119.053 59.8524L120.672 62.0996H119.345L117.868 60.0205H116.496V62.0996H115.452V55.9153H117.753C118.696 55.9153 119.372 56.0746 119.779 56.3931C120.186 56.7116 120.389 57.2218 120.389 57.9237ZM117.797 59.0738C118.387 59.0738 118.788 58.9824 119 58.7996C119.212 58.6167 119.319 58.3247 119.319 57.9237C119.319 57.5167 119.209 57.2395 118.991 57.092C118.773 56.9387 118.384 56.862 117.823 56.862H116.496V59.0738H117.797ZM128.648 55.9153H129.692V62.0996H128.56L125.056 57.5875V62.0996H124.012V55.9153H125.056L128.648 60.5336V55.9153ZM134.407 60.6929L133.788 62.0996H132.673L135.398 55.9153H136.513L139.238 62.0996H138.123L137.504 60.6929H134.407ZM137.079 59.7285L135.956 57.1805L134.832 59.7285H137.079ZM144.557 56.8708V62.0996H143.513V56.8708H141.637V55.9153H146.433V56.8708H144.557ZM149.684 55.9153H150.728V62.0996H149.684V55.9153ZM158.97 57.3751C158.551 56.9387 158.035 56.7204 157.421 56.7204C156.808 56.7204 156.289 56.9387 155.864 57.3751C155.445 57.8116 155.236 58.3424 155.236 58.9676C155.236 59.587 155.445 60.1149 155.864 60.5513C156.289 60.9878 156.808 61.206 157.421 61.206C158.035 61.206 158.551 60.9878 158.97 60.5513C159.394 60.1149 159.607 59.587 159.607 58.9676C159.607 58.3424 159.394 57.8116 158.97 57.3751ZM159.739 61.2503C159.114 61.8578 158.342 62.1615 157.421 62.1615C156.501 62.1615 155.729 61.8578 155.103 61.2503C154.478 60.6368 154.166 59.876 154.166 58.9676C154.166 58.0534 154.478 57.2926 155.103 56.685C155.729 56.0716 156.501 55.7649 157.421 55.7649C158.342 55.7649 159.114 56.0716 159.739 56.685C160.365 57.2926 160.677 58.0534 160.677 58.9676C160.677 59.876 160.365 60.6368 159.739 61.2503ZM168.753 55.9153H169.797V62.0996H168.665L165.161 57.5875V62.0996H164.117V55.9153H165.161L168.753 60.5336V55.9153ZM174.513 60.6929L173.893 62.0996H172.778L175.503 55.9153H176.618L179.343 62.0996H178.228L177.609 60.6929H174.513ZM177.184 59.7285L176.061 57.1805L174.937 59.7285H177.184ZM182.326 62.0996V55.9153H183.37V61.1087H186.193V62.0996H182.326Z" fill="#436496"/>
<path d="M41.1034 0L32.9417 19.043L25.5969 36.3123L19.9501 49.5906L13.9746 63.6529L20.5128 49.5906L26.6815 36.3123L33.7891 21.0261L38.3749 31.814L40.2899 36.3123H36.2803L30.1082 49.5906L45.9367 49.5977L51.919 63.6564H69.9777L63.9954 49.5977L58.3487 36.3194L47.8042 11.5258L43.2218 0.879781L42.8455 0H41.1034Z" fill="url(#paint0_linear_42271_11760)"/>
<path d="M27.0745 0.00390625L25.9594 2.62196L11.6256 36.3126L5.98229 49.5909H5.9789L0 63.6532H0.0033894L6.54154 49.5909L12.7103 36.3126L27.1152 5.33226L29.5996 0.00390625H27.0745Z" fill="url(#paint1_linear_42271_11760)"/>
<path d="M29.4527 10.8305L18.61 36.3123L12.9667 49.5906H12.9633L6.98438 63.6529H6.99115L13.5259 49.5906L19.698 36.3123L30.4492 13.179L36.5738 0.0035475L34.0487 0L29.4527 10.8305Z" fill="url(#paint2_linear_42271_11760)"/>
<defs>
<linearGradient id="paint0_linear_42271_11760" x1="21.4697" y1="-53.3183" x2="62.6214" y2="63.6957" gradientUnits="userSpaceOnUse">
<stop stop-color="#E8F3FD"/>
<stop offset="0.709689" stop-color="#436496"/>
</linearGradient>
<linearGradient id="paint1_linear_42271_11760" x1="3.96143" y1="-53.3085" x2="64.5932" y2="37.824" gradientUnits="userSpaceOnUse">
<stop stop-color="#E8F3FD"/>
<stop offset="0.709689" stop-color="#436496"/>
</linearGradient>
<linearGradient id="paint2_linear_42271_11760" x1="10.9444" y1="-53.3153" x2="71.5889" y2="37.7999" gradientUnits="userSpaceOnUse">
<stop stop-color="#E8F3FD"/>
<stop offset="0.709689" stop-color="#436496"/>
</linearGradient>
</defs>
</svg>
