<svg width="28" height="28" viewBox="0 0 28 28" fill="none" xmlns="http://www.w3.org/2000/svg">
<path d="M23.5991 15.1983C23.5991 21.1973 19.3998 24.1968 14.4087 25.9365C14.1473 26.0251 13.8634 26.0209 13.6048 25.9245C8.60164 24.1968 4.40234 21.1973 4.40234 15.1983V6.79974C4.40234 6.48153 4.52875 6.17636 4.75376 5.95135C4.97876 5.72634 5.28394 5.59994 5.60214 5.59994C8.00174 5.59994 11.0012 4.16018 13.0889 2.33648C13.3431 2.11932 13.6664 2 14.0007 2C14.3351 2 14.6584 2.11932 14.9126 2.33648C17.0122 4.17218 19.9997 5.59994 22.3993 5.59994C22.7175 5.59994 23.0227 5.72634 23.2477 5.95135C23.4727 6.17636 23.5991 6.48153 23.5991 6.79974V15.1983Z" stroke="#00C853" stroke-width="2" stroke-linecap="round" stroke-linejoin="round"/>
</svg>
